<?xml version="1.0" encoding="UTF-8" standalone="no"?>
<!-- Created with Inkscape (http://www.inkscape.org/) -->

<svg
   width="640mm"
   height="360mm"
   viewBox="0 0 640 360"
   version="1.1"
   id="svg1"
   xml:space="preserve"
   inkscape:version="1.3.2 (091e20ef0f, 2023-11-25)"
   sodipodi:docname="emila.svg"
   xmlns:inkscape="http://www.inkscape.org/namespaces/inkscape"
   xmlns:sodipodi="http://sodipodi.sourceforge.net/DTD/sodipodi-0.dtd"
   xmlns="http://www.w3.org/2000/svg"
   xmlns:svg="http://www.w3.org/2000/svg"><sodipodi:namedview
     id="namedview1"
     pagecolor="#ffffff"
     bordercolor="#000000"
     borderopacity="0.25"
     inkscape:showpageshadow="2"
     inkscape:pageopacity="0.0"
     inkscape:pagecheckerboard="0"
     inkscape:deskcolor="#d1d1d1"
     inkscape:document-units="mm"
     inkscape:zoom="0.32595467"
     inkscape:cx="1155.0686"
     inkscape:cy="1247.1059"
     inkscape:window-width="1920"
     inkscape:window-height="1131"
     inkscape:window-x="0"
     inkscape:window-y="0"
     inkscape:window-maximized="1"
     inkscape:current-layer="layer1" /><defs
     id="defs1" /><g
     inkscape:label="Layer 1"
     inkscape:groupmode="layer"
     id="layer1"><g
       style="fill:none"
       id="g1"
       transform="matrix(5.2460885,0,0,5.2460885,-93.369435,17.370996)"><circle
         cx="41"
         cy="31"
         r="3.25"
         stroke="#de5454"
         stroke-width="1.5"
         stroke-linecap="round"
         stroke-linejoin="round"
         id="circle1" /><path
         fill-rule="evenodd"
         clip-rule="evenodd"
         d="m 40.9999,20.1667 c 1.795,0 3.25,1.4551 3.25,3.25 0,0.6089 -0.2806,1.5622 -0.8406,2.86 l -0.7844,1.4734 1.9067,-2.0508 c 0.5406,-0.65 0.9988,-1.0855 1.3758,-1.3054 0.7417,-0.4306 1.6247,-0.5471 2.4527,-0.3235 0.828,0.2235 1.5324,0.7687 1.9565,1.5141 0.8919,1.5531 0.3648,3.5348 -1.1808,4.4395 -0.4052,0.2351 -1.0725,0.429 -1.9999,0.5796 l -2.886,0.3965 2.6,0.3531 c 1.0779,0.1571 1.8395,0.3651 2.2859,0.624 1.5456,0.9048 2.0727,2.8865 1.1808,4.4395 -0.4243,0.7453 -1.1287,1.2902 -1.9567,1.5136 -0.828,0.2233 -1.7109,0.1067 -2.4525,-0.3241 -0.377,-0.2188 -0.8352,-0.6543 -1.3758,-1.3054 l -1.9067,-2.0507 0.7844,1.4733 c 0.559,1.2989 0.8406,2.2523 0.8406,2.86 0,1.7949 -1.455,3.25 -3.25,3.25 -1.7949,0 -3.25,-1.4551 -3.25,-3.25 0,-0.6088 0.2806,-1.5622 0.8407,-2.86 l 0.7843,-1.4733 -1.9066,2.0507 c -0.5406,0.6511 -0.9989,1.0866 -1.3759,1.3054 -0.7415,0.4308 -1.6244,0.5474 -2.4524,0.3241 -0.828,-0.2234 -1.5324,-0.7683 -1.9567,-1.5136 -0.8919,-1.553 -0.3648,-3.5347 1.1808,-4.4395 0.4052,-0.2361 1.0725,-0.429 1.9998,-0.5806 l 2.886,-0.3965 -2.6,-0.3521 c -1.0779,-0.1571 -1.8395,-0.3651 -2.2858,-0.624 -1.5463,-0.9048 -2.0734,-2.8873 -1.1808,-4.4406 0.4241,-0.7454 1.1284,-1.2905 1.9564,-1.5141 0.828,-0.2236 1.711,-0.1071 2.4527,0.3235 0.377,0.2199 0.8353,0.6544 1.3759,1.3054 l 1.9066,2.0519 c -1.0833,-2.483 -1.625,-3.9271 -1.625,-4.3334 0,-1.7949 1.4551,-3.25 3.25,-3.25 z"
         stroke="#de5454"
         stroke-width="1.5"
         stroke-linecap="round"
         stroke-linejoin="round"
         id="path1" /><path
         d="M 59.632,39 V 22.2 H 70.6 v 2.472 h -7.896 v 4.608 h 7.176 v 2.4 h -7.176 v 4.848 H 70.6 V 39 Z m 14.053,0 V 27.096 h 2.712 l 0.264,1.608 c 0.384,-0.576 0.888,-1.032 1.512,-1.368 0.64,-0.352 1.376,-0.528 2.208,-0.528 1.84,0 3.144,0.712 3.912,2.136 0.432,-0.656 1.008,-1.176 1.728,-1.56 0.736,-0.384 1.536,-0.576 2.4,-0.576 1.552,0 2.744,0.464 3.576,1.392 0.832,0.928 1.248,2.288 1.248,4.08 V 39 h -3.072 v -6.432 c 0,-1.024 -0.2,-1.808 -0.6,-2.352 -0.384,-0.544 -0.984,-0.816 -1.8,-0.816 -0.832,0 -1.504,0.304 -2.016,0.912 -0.496,0.608 -0.744,1.456 -0.744,2.544 V 39 h -3.072 v -6.432 c 0,-1.024 -0.2,-1.808 -0.6,-2.352 -0.4,-0.544 -1.016,-0.816 -1.848,-0.816 -0.816,0 -1.48,0.304 -1.992,0.912 -0.496,0.608 -0.744,1.456 -0.744,2.544 V 39 Z M 98.0676,25.248 c -0.56,0 -1.024,-0.168 -1.392,-0.504 -0.352,-0.336 -0.528,-0.76 -0.528,-1.272 0,-0.512 0.176,-0.928 0.528,-1.248 0.368,-0.336 0.832,-0.504 1.392,-0.504 0.56,0 1.016,0.168 1.368,0.504 0.368,0.32 0.552,0.736 0.552,1.248 0,0.512 -0.184,0.936 -0.552,1.272 -0.352,0.336 -0.808,0.504 -1.368,0.504 z M 96.5316,39 V 27.096 h 3.072 V 39 Z m 6.5284,0 V 21.72 h 3.072 V 39 Z m 8.117,-13.752 c -0.56,0 -1.024,-0.168 -1.392,-0.504 -0.352,-0.336 -0.528,-0.76 -0.528,-1.272 0,-0.512 0.176,-0.928 0.528,-1.248 0.368,-0.336 0.832,-0.504 1.392,-0.504 0.56,0 1.016,0.168 1.368,0.504 0.368,0.32 0.552,0.736 0.552,1.248 0,0.512 -0.184,0.936 -0.552,1.272 -0.352,0.336 -0.808,0.504 -1.368,0.504 z M 109.641,39 V 27.096 h 3.072 V 39 Z m 10.632,0.288 c -1.024,0 -1.864,-0.16 -2.52,-0.48 -0.656,-0.336 -1.144,-0.776 -1.464,-1.32 -0.32,-0.544 -0.48,-1.144 -0.48,-1.8 0,-1.104 0.432,-2 1.296,-2.688 0.864,-0.688 2.16,-1.032 3.888,-1.032 h 3.024 V 31.68 c 0,-0.816 -0.232,-1.416 -0.696,-1.8 -0.464,-0.384 -1.04,-0.576 -1.728,-0.576 -0.624,0 -1.168,0.152 -1.632,0.456 -0.464,0.288 -0.752,0.72 -0.864,1.296 h -3 c 0.08,-0.864 0.368,-1.616 0.864,-2.256 0.512,-0.64 1.168,-1.128 1.968,-1.464 0.8,-0.352 1.696,-0.528 2.688,-0.528 1.696,0 3.032,0.424 4.008,1.272 0.976,0.848 1.464,2.048 1.464,3.6 V 39 h -2.616 l -0.288,-1.92 c -0.352,0.64 -0.848,1.168 -1.488,1.584 -0.624,0.416 -1.432,0.624 -2.424,0.624 z m 0.696,-2.4 c 0.88,0 1.56,-0.288 2.04,-0.864 0.496,-0.576 0.808,-1.288 0.936,-2.136 h -2.616 c -0.816,0 -1.4,0.152 -1.752,0.456 -0.352,0.288 -0.528,0.648 -0.528,1.08 0,0.464 0.176,0.824 0.528,1.08 0.352,0.256 0.816,0.384 1.392,0.384 z"
         fill="#e6e6e9"
         id="path2" /></g></g></svg>
