<svg width="158" height="63" viewBox="0 0 158 63" fill="none" xmlns="http://www.w3.org/2000/svg">
<circle cx="41" cy="31" r="3.25" stroke="#DE5454" stroke-width="1.5" stroke-linecap="round" stroke-linejoin="round"/>
<path fill-rule="evenodd" clip-rule="evenodd" d="M40.9999 20.1667C42.7949 20.1667 44.2499 21.6218 44.2499 23.4167C44.2499 24.0256 43.9693 24.9789 43.4093 26.2767L42.6249 27.7501L44.5316 25.6993C45.0722 25.0493 45.5304 24.6138 45.9074 24.3939C46.6491 23.9633 47.5321 23.8468 48.3601 24.0704C49.1881 24.2939 49.8925 24.8391 50.3166 25.5845C51.2085 27.1376 50.6814 29.1193 49.1358 30.024C48.7306 30.2591 48.0633 30.453 47.1359 30.6036L44.2499 31.0001L46.8499 31.3532C47.9278 31.5103 48.6894 31.7183 49.1358 31.9772C50.6814 32.882 51.2085 34.8637 50.3166 36.4167C49.8923 37.162 49.1879 37.7069 48.3599 37.9303C47.5319 38.1536 46.649 38.037 45.9074 37.6062C45.5304 37.3874 45.0722 36.9519 44.5316 36.3008L42.6249 34.2501L43.4093 35.7234C43.9683 37.0223 44.2499 37.9757 44.2499 38.5834C44.2499 40.3783 42.7949 41.8334 40.9999 41.8334C39.205 41.8334 37.7499 40.3783 37.7499 38.5834C37.7499 37.9746 38.0305 37.0212 38.5906 35.7234L39.3749 34.2501L37.4683 36.3008C36.9277 36.9519 36.4694 37.3874 36.0924 37.6062C35.3509 38.037 34.468 38.1536 33.64 37.9303C32.812 37.7069 32.1076 37.162 31.6833 36.4167C30.7914 34.8637 31.3185 32.882 32.8641 31.9772C33.2693 31.7411 33.9366 31.5482 34.8639 31.3966L37.7499 31.0001L35.1499 30.648C34.072 30.4909 33.3104 30.2829 32.8641 30.024C31.3178 29.1192 30.7907 27.1367 31.6833 25.5834C32.1074 24.838 32.8117 24.2929 33.6397 24.0693C34.4677 23.8457 35.3507 23.9622 36.0924 24.3928C36.4694 24.6127 36.9277 25.0472 37.4683 25.6982L39.3749 27.7501C38.2916 25.2671 37.7499 23.823 37.7499 23.4167C37.7499 21.6218 39.205 20.1667 40.9999 20.1667V20.1667Z" stroke="#DE5454" stroke-width="1.5" stroke-linecap="round" stroke-linejoin="round"/>
<path d="M59.632 39V22.2H70.6V24.672H62.704V29.28H69.88V31.68H62.704V36.528H70.6V39H59.632ZM73.685 39V27.096H76.397L76.661 28.704C77.045 28.128 77.549 27.672 78.173 27.336C78.813 26.984 79.549 26.808 80.381 26.808C82.221 26.808 83.525 27.52 84.293 28.944C84.725 28.288 85.301 27.768 86.021 27.384C86.757 27 87.557 26.808 88.421 26.808C89.973 26.808 91.165 27.272 91.997 28.2C92.829 29.128 93.245 30.488 93.245 32.28V39H90.173V32.568C90.173 31.544 89.973 30.76 89.573 30.216C89.189 29.672 88.589 29.4 87.773 29.4C86.941 29.4 86.269 29.704 85.757 30.312C85.261 30.92 85.013 31.768 85.013 32.856V39H81.941V32.568C81.941 31.544 81.741 30.76 81.341 30.216C80.941 29.672 80.325 29.4 79.493 29.4C78.677 29.4 78.013 29.704 77.501 30.312C77.005 30.92 76.757 31.768 76.757 32.856V39H73.685ZM98.0676 25.248C97.5076 25.248 97.0436 25.08 96.6756 24.744C96.3236 24.408 96.1476 23.984 96.1476 23.472C96.1476 22.96 96.3236 22.544 96.6756 22.224C97.0436 21.888 97.5076 21.72 98.0676 21.72C98.6276 21.72 99.0836 21.888 99.4356 22.224C99.8036 22.544 99.9876 22.96 99.9876 23.472C99.9876 23.984 99.8036 24.408 99.4356 24.744C99.0836 25.08 98.6276 25.248 98.0676 25.248ZM96.5316 39V27.096H99.6036V39H96.5316ZM103.06 39V21.72H106.132V39H103.06ZM111.177 25.248C110.617 25.248 110.153 25.08 109.785 24.744C109.433 24.408 109.257 23.984 109.257 23.472C109.257 22.96 109.433 22.544 109.785 22.224C110.153 21.888 110.617 21.72 111.177 21.72C111.737 21.72 112.193 21.888 112.545 22.224C112.913 22.544 113.097 22.96 113.097 23.472C113.097 23.984 112.913 24.408 112.545 24.744C112.193 25.08 111.737 25.248 111.177 25.248ZM109.641 39V27.096H112.713V39H109.641ZM120.273 39.288C119.249 39.288 118.409 39.128 117.753 38.808C117.097 38.472 116.609 38.032 116.289 37.488C115.969 36.944 115.809 36.344 115.809 35.688C115.809 34.584 116.241 33.688 117.105 33C117.969 32.312 119.265 31.968 120.993 31.968H124.017V31.68C124.017 30.864 123.785 30.264 123.321 29.88C122.857 29.496 122.281 29.304 121.593 29.304C120.969 29.304 120.425 29.456 119.961 29.76C119.497 30.048 119.209 30.48 119.097 31.056H116.097C116.177 30.192 116.465 29.44 116.961 28.8C117.473 28.16 118.129 27.672 118.929 27.336C119.729 26.984 120.625 26.808 121.617 26.808C123.313 26.808 124.649 27.232 125.625 28.08C126.601 28.928 127.089 30.128 127.089 31.68V39H124.473L124.185 37.08C123.833 37.72 123.337 38.248 122.697 38.664C122.073 39.08 121.265 39.288 120.273 39.288ZM120.969 36.888C121.849 36.888 122.529 36.6 123.009 36.024C123.505 35.448 123.817 34.736 123.945 33.888H121.329C120.513 33.888 119.929 34.04 119.577 34.344C119.225 34.632 119.049 34.992 119.049 35.424C119.049 35.888 119.225 36.248 119.577 36.504C119.929 36.76 120.393 36.888 120.969 36.888Z" fill="#E6E6E9"/>
</svg>
